<!-- Generated by IcoMoon.io -->
<svg version="1.1" xmlns="http://www.w3.org/2000/svg" width="32" height="32" viewBox="0 0 32 32">
<title>automatic</title>
<path fill="none" stroke-linejoin="round" stroke-linecap="round" stroke-miterlimit="4" stroke-width="2.4" stroke="#101828" d="M22.667 14.667h2c1.105 0 2-0.895 2-2s-0.895-2-2-2v0h-2v6.666M22.667 22.667v5.333h1.333c1.473 0 2.666-1.194 2.666-2.666s-1.194-2.666-2.666-2.666v0h-1.333zM4 6.667c-0.001 0.019-0.001 0.042-0.001 0.065 0 1.473 1.194 2.667 2.667 2.667s2.667-1.194 2.667-2.667c0-0.023-0-0.046-0.001-0.069l0 0.003c-0.037-1.445-1.216-2.602-2.666-2.602s-2.63 1.157-2.666 2.598l-0 0.003z"></path>
<path fill="none" stroke-linejoin="round" stroke-linecap="round" stroke-miterlimit="4" stroke-width="2.4" stroke="#101828" d="M6.667 9.333v4c0 0 0 0.001 0 0.002 0 0.736 0.597 1.333 1.333 1.333h4M12 14.667v9.333c0 0.736 0.597 1.333 1.333 1.333v0h4M12 14.667h5.333"></path>
</svg>
