<!-- Generated by IcoMoon.io -->
<svg version="1.1" xmlns="http://www.w3.org/2000/svg" width="32" height="32" viewBox="0 0 32 32">
<title>freezer</title>
<path fill="none" stroke-linejoin="round" stroke-linecap="round" stroke-miterlimit="4" stroke-width="2.0800" stroke="#101828" d="M23.4 3h-14.794c-1.104 0-2 0.896-2 2v20.387c0 1.104 0.896 2 2 2h14.794c1.104 0 2-0.896 2-2v-20.387c0-1.104-0.896-2-2-2z"></path>
<path fill="none" stroke-linejoin="round" stroke-linecap="round" stroke-miterlimit="4" stroke-width="2.0800" stroke="#101828" d="M6.608 13.126h18.784M10.314 10.566v-4.038M10.314 19.442v-4.042M8.426 27.387v0.699c0 0 0 0.001 0 0.002 0 0.502 0.406 0.909 0.907 0.912h1.648c0.504 0 0.912-0.408 0.912-0.912v0-0.701M20.101 27.387v0.699c0 0 0 0.001 0 0.002 0 0.504 0.408 0.912 0.912 0.912 0 0 0 0 0 0h1.654c0.504 0 0.912-0.408 0.912-0.912v0-0.701"></path>
</svg>
