<!-- Generated by IcoMoon.io -->
<svg version="1.1" xmlns="http://www.w3.org/2000/svg" width="46" height="32" viewBox="0 0 46 32">
<title>rb-1</title>
<path fill="#101828" d="M2.608 1.8h12.409c0 0 0.001 0 0.001 0 0.108 0 0.206-0.043 0.277-0.113l-0 0 1.192-1.161c0.332-0.325 0.788-0.526 1.29-0.526 0.003 0 0.005 0 0.007 0h18.817c0.004-0 0.008-0 0.012-0 0.894 0 1.683 0.446 2.158 1.127l0.006 0.009 2.255 3.301c0.32 0.469 0.35 1.067 0.078 1.563-0.273 0.483-0.783 0.805-1.368 0.805-0.003 0-0.006 0-0.009-0h-9.698v0.957h4.967c0.006-0 0.014-0 0.021-0 1.328 0 2.472 0.789 2.988 1.925l0.008 0.021 2.909 6.649 2.549 0.994c1.36 0.531 2.239 1.798 2.239 3.227v6.158c0 0.919-0.766 1.666-1.707 1.666h-2.965c-0.344 2.038-2.162 3.599-4.35 3.599s-4.007-1.561-4.35-3.6h-16.203c-0.345 2.040-2.165 3.6-4.351 3.6-2.185 0-4.005-1.561-4.35-3.6h-5.92c-0.839 0-1.519-0.663-1.519-1.479v-22.578c0-1.403 1.169-2.544 2.608-2.544zM36.693 30.594c1.637 0 2.969-1.299 2.969-2.897 0-1.597-1.333-2.896-2.969-2.896-1.638 0-2.969 1.299-2.969 2.896 0 1.598 1.331 2.897 2.969 2.897zM30.034 26.994h2.307l0.019-0.104 0.014-0.071c0.011-0.055 0.025-0.11 0.039-0.165l0.009-0.034c0.017-0.065 0.035-0.129 0.057-0.194 0.005-0.018 0.011-0.037 0.018-0.056 0.034-0.102 0.059-0.171 0.086-0.238l-0.011 0.032 0.047-0.114 0.034-0.075 0.049-0.109 0.038-0.075 0.055-0.103 0.040-0.074 0.059-0.101 0.043-0.071 0.066-0.101 0.045-0.065c0.025-0.035 0.050-0.071 0.078-0.105l0.040-0.055c0.089-0.113 0.173-0.212 0.261-0.308l-0.003 0.004 0.042-0.043 0.096-0.099 0.057-0.053c0.075-0.072 0.153-0.142 0.234-0.209l0.007-0.005 0.066-0.051c0.042-0.034 0.094-0.074 0.148-0.113l0.013-0.009 0.097-0.067 0.069-0.046c0.034-0.023 0.069-0.043 0.104-0.065l0.069-0.041c0.038-0.023 0.077-0.043 0.115-0.065l0.059-0.034c0.025-0.015 0.081-0.043 0.137-0.069l0.032-0.014 0.013-0.006c0.062-0.030 0.123-0.057 0.186-0.082 0.019-0.009 0.041-0.016 0.061-0.024l0.13-0.050 0.074-0.026c0.139-0.050 0.314-0.099 0.493-0.138l0.030-0.006 0.087-0.018c0.087-0.018 0.201-0.036 0.317-0.049l0.019-0.002 0.082-0.009 0.143-0.011c0.023 0 0.047-0.003 0.071-0.003 0.065-0.004 0.14-0.006 0.216-0.006s0.151 0.002 0.226 0.006l-0.010-0c0.023 0 0.046 0.002 0.071 0.005 0.047 0.002 0.095 0.006 0.143 0.011 0.027 0.001 0.055 0.006 0.082 0.008 0.164 0.018 0.308 0.042 0.449 0.074l-0.026-0.005c0.208 0.044 0.383 0.093 0.554 0.153l-0.030-0.009 0.074 0.026 0.13 0.050 0.061 0.023c0.063 0.026 0.126 0.054 0.186 0.083l0.013 0.006c0.057 0.027 0.113 0.055 0.168 0.085l0.059 0.033c0.040 0.021 0.079 0.042 0.117 0.065l0.069 0.041 0.103 0.065 0.070 0.046 0.097 0.069c0.064 0.045 0.116 0.085 0.167 0.126l-0.006-0.005 0.066 0.051c0.089 0.075 0.167 0.145 0.244 0.218l-0.003-0.003 0.057 0.053 0.096 0.099 0.042 0.043c0.046 0.048 0.089 0.098 0.131 0.149l0.017 0.021c0.037 0.045 0.073 0.088 0.109 0.135l0.040 0.055 0.078 0.105 0.045 0.065 0.066 0.101 0.043 0.071 0.058 0.101 0.041 0.074 0.055 0.103 0.038 0.075c0.017 0.037 0.034 0.072 0.049 0.109l0.034 0.074c0.020 0.043 0.045 0.105 0.068 0.168l0.006 0.020 0.047 0.134 0.019 0.057c0.019 0.064 0.039 0.128 0.057 0.194l0.008 0.034c0.014 0.054 0.026 0.109 0.038 0.163l0.015 0.071 0.019 0.104h2.963c0.001 0 0.002 0 0.003 0 0.144 0 0.261-0.116 0.263-0.259v-2.946h-1.125v-1.406h1.125v-1.806c0-0.851-0.523-1.606-1.334-1.922l-2.697-1.051h-10.208v9.391zM30.034 16.197h9.257l-2.598-5.939c-0.294-0.648-0.936-1.090-1.68-1.090-0.004 0-0.009 0-0.013 0h-4.966v7.030zM11.789 30.594c1.638 0 2.969-1.299 2.969-2.897 0-1.597-1.331-2.896-2.969-2.896-0.051 0-0.102 0.001-0.152 0.005-1.365 0.067-2.488 1.038-2.757 2.309-0.027 0.126-0.047 0.274-0.056 0.426l-0 0.008c-0.002 0.040-0.003 0.086-0.003 0.133 0 0.005 0 0.011 0 0.016v-0.001c0 1.598 1.331 2.897 2.968 2.897zM1.441 22.383h1.125v1.406h-1.126v3.131c0 0.041 0.034 0.074 0.077 0.074h5.92l0.021-0.103c0.005-0.024 0.008-0.049 0.014-0.073 0.011-0.054 0.023-0.107 0.038-0.16l0.009-0.038c0.017-0.065 0.037-0.129 0.057-0.194l0.019-0.057 0.046-0.133 0.029-0.072c0.041-0.106 0.068-0.169 0.096-0.231l-0.016 0.040 0.049-0.106c0.011-0.026 0.025-0.051 0.039-0.077l0.053-0.103 0.042-0.074c0.081-0.139 0.151-0.249 0.225-0.356l-0.013 0.019 0.077-0.104 0.042-0.057c0.034-0.045 0.069-0.088 0.106-0.131l0.018-0.023c0.043-0.050 0.087-0.101 0.131-0.149l0.043-0.046 0.096-0.097 0.057-0.054 0.088-0.083 0.063-0.054 0.090-0.075 0.066-0.054c0.039-0.032 0.092-0.071 0.144-0.11l0.016-0.011c0.032-0.023 0.064-0.046 0.097-0.066l0.069-0.047 0.103-0.065 0.069-0.041 0.117-0.065 0.061-0.034c0.055-0.029 0.111-0.056 0.167-0.082 0.005-0.002 0.009-0.006 0.015-0.007 0.061-0.030 0.123-0.057 0.185-0.082l0.191-0.074 0.075-0.026c0.012-0.005 0.052-0.019 0.092-0.031l0.028-0.008c0.101-0.033 0.236-0.069 0.374-0.099l0.030-0.005 0.086-0.019c0.087-0.018 0.201-0.036 0.317-0.049l0.019-0.002 0.082-0.009 0.144-0.011c0.023 0 0.046-0.003 0.070-0.003 0.065-0.004 0.14-0.006 0.216-0.006s0.151 0.002 0.226 0.006l-0.010-0c0.024 0 0.047 0.002 0.071 0.005 0.048 0.002 0.096 0.006 0.143 0.011 0.027 0.001 0.055 0.006 0.082 0.008 0.093 0.010 0.166 0.021 0.239 0.033l-0.024-0.003 0.121 0.021 0.087 0.018c0.138 0.029 0.246 0.056 0.352 0.088l-0.031-0.008 0.082 0.025c0.040 0.011 0.080 0.025 0.119 0.039l0.075 0.026 0.13 0.050 0.061 0.023c0.153 0.064 0.274 0.122 0.391 0.186l-0.024-0.012 0.061 0.033 0.117 0.065 0.069 0.041 0.103 0.065 0.070 0.046 0.096 0.069c0.062 0.043 0.114 0.083 0.165 0.124l-0.005-0.004 0.067 0.054c0.031 0.024 0.061 0.050 0.090 0.075l0.062 0.054 0.146 0.137 0.096 0.098 0.042 0.046c0.085 0.092 0.169 0.191 0.249 0.293l0.008 0.010 0.041 0.055c0.026 0.034 0.053 0.070 0.077 0.105l0.045 0.066c0.051 0.073 0.107 0.161 0.159 0.252l0.010 0.019 0.041 0.074 0.054 0.103 0.038 0.075 0.050 0.109 0.033 0.074c0.017 0.039 0.032 0.078 0.047 0.117l0.027 0.071c0.017 0.045 0.032 0.089 0.047 0.135l0.019 0.055c0.021 0.064 0.039 0.13 0.057 0.194l0.007 0.032c0.015 0.055 0.027 0.111 0.040 0.167l0.013 0.069 0.022 0.106h12.453v-20.891c0-0.389 0.322-0.704 0.72-0.704h10.419c0.017 0 0.072 0 0.106-0.063 0.010-0.016 0.016-0.035 0.016-0.055 0-0.025-0.008-0.047-0.023-0.065l0 0-2.254-3.299c-0.216-0.31-0.571-0.511-0.972-0.511-0.002 0-0.003 0-0.005 0h-18.817c-0 0-0.001 0-0.001 0-0.108 0-0.206 0.043-0.277 0.113l0-0-1.192 1.162c-0.332 0.324-0.787 0.525-1.289 0.525-0.003 0-0.006 0-0.009-0h-12.408c-0.004-0-0.008-0-0.013-0-0.632 0-1.145 0.508-1.154 1.137v18.040z"></path>
<path fill="#101828" d="M5.536 7.198h8.814c1.019 0 1.848 0.809 1.848 1.802v4.101c0 0.994-0.83 1.802-1.848 1.802h-8.815c-1.018 0-1.847-0.808-1.847-1.802v-4.101c0-0.994 0.829-1.802 1.848-1.802zM5.129 13.101c0 0.217 0.183 0.397 0.407 0.397h8.814c0.001 0 0.003 0 0.005 0 0.22 0 0.399-0.177 0.402-0.396v-4.101c0-0.218-0.183-0.397-0.407-0.397h-8.815c-0.001 0-0.002 0-0.003 0-0.22 0-0.399 0.177-0.402 0.396v4.101z"></path>
</svg>
