<!-- Generated by IcoMoon.io -->
<svg version="1.1" xmlns="http://www.w3.org/2000/svg" width="44" height="32" viewBox="0 0 44 32">
<title>rb-3</title>
<path fill="#101828" d="M2.518 2.29h11.981c0 0 0.001 0 0.001 0 0.104 0 0.199-0.042 0.267-0.109l-0 0 1.151-1.121c0.321-0.314 0.761-0.508 1.246-0.508 0.002 0 0.005 0 0.007 0h18.168c0.004-0 0.008-0 0.012-0 0.863 0 1.625 0.431 2.084 1.089l0.005 0.008 2.177 3.187c0.309 0.452 0.338 1.031 0.075 1.51-0.263 0.467-0.756 0.777-1.321 0.777-0.003 0-0.006 0-0.009-0h-9.363v0.924h4.796c0.006-0 0.013-0 0.020-0 1.282 0 2.387 0.762 2.885 1.858l0.008 0.020 2.808 6.42 2.461 0.96c1.313 0.513 2.162 1.736 2.162 3.116v5.945c0 0.887-0.739 1.609-1.649 1.609h-2.862c-0.332 1.967-2.089 3.475-4.2 3.475s-3.869-1.507-4.2-3.476h-15.645c-0.333 1.969-2.090 3.476-4.201 3.476-2.11 0-3.866-1.507-4.2-3.476h-5.716c-0.81 0-1.466-0.64-1.466-1.428v-21.8c0-1.355 1.129-2.456 2.518-2.456zM35.427 30.091c1.58 0 2.867-1.255 2.867-2.797 0-1.542-1.287-2.796-2.867-2.796-1.581 0-2.867 1.255-2.867 2.796 0 1.543 1.286 2.797 2.867 2.797zM28.999 26.615h2.228l0.019-0.1 0.013-0.068c0.011-0.053 0.024-0.106 0.038-0.159l0.009-0.033c0.017-0.063 0.034-0.125 0.055-0.188 0.004-0.018 0.011-0.035 0.018-0.054 0.033-0.099 0.057-0.165 0.083-0.23l-0.011 0.031 0.045-0.11 0.033-0.073 0.047-0.105 0.036-0.073 0.053-0.099 0.039-0.072 0.057-0.097 0.042-0.068 0.064-0.097 0.043-0.063c0.024-0.034 0.049-0.068 0.075-0.102l0.039-0.053c0.086-0.109 0.167-0.205 0.252-0.297l-0.003 0.004 0.041-0.042 0.093-0.096 0.055-0.051c0.072-0.070 0.148-0.137 0.226-0.202l0.007-0.005 0.064-0.050c0.041-0.033 0.091-0.071 0.143-0.109l0.013-0.009 0.094-0.065 0.066-0.044c0.033-0.022 0.066-0.042 0.1-0.063l0.066-0.040c0.036-0.022 0.074-0.042 0.111-0.063l0.057-0.033c0.024-0.014 0.078-0.041 0.132-0.067l0.031-0.014 0.012-0.006c0.060-0.029 0.119-0.055 0.18-0.079 0.019-0.009 0.040-0.015 0.058-0.023l0.126-0.049 0.072-0.025c0.134-0.048 0.303-0.096 0.476-0.134l0.029-0.005 0.084-0.018c0.084-0.017 0.194-0.034 0.306-0.047l0.018-0.002 0.079-0.009 0.138-0.011c0.022 0 0.045-0.003 0.068-0.003 0.062-0.004 0.135-0.006 0.209-0.006s0.146 0.002 0.219 0.006l-0.010-0c0.022 0 0.044 0.002 0.068 0.004 0.045 0.002 0.092 0.006 0.138 0.011 0.026 0.001 0.053 0.006 0.079 0.008 0.158 0.017 0.297 0.040 0.434 0.071l-0.025-0.005c0.201 0.042 0.37 0.090 0.535 0.148l-0.029-0.009 0.072 0.025 0.126 0.049 0.058 0.022c0.061 0.025 0.121 0.052 0.18 0.081l0.012 0.006c0.055 0.026 0.109 0.053 0.162 0.082l0.057 0.032c0.039 0.020 0.076 0.041 0.113 0.063l0.066 0.040 0.099 0.063 0.067 0.044 0.094 0.066c0.062 0.043 0.112 0.082 0.162 0.122l-0.006-0.005 0.064 0.050c0.086 0.073 0.162 0.14 0.236 0.21l-0.003-0.003 0.055 0.051 0.093 0.096 0.041 0.042c0.044 0.046 0.086 0.095 0.127 0.143l0.017 0.020c0.035 0.043 0.071 0.085 0.105 0.13l0.039 0.053 0.075 0.102 0.043 0.063 0.064 0.097 0.042 0.068 0.056 0.097 0.040 0.072 0.053 0.099 0.036 0.073c0.017 0.035 0.033 0.070 0.047 0.105l0.033 0.072c0.019 0.041 0.044 0.101 0.066 0.162l0.006 0.019 0.045 0.129 0.019 0.055c0.019 0.062 0.038 0.124 0.055 0.188l0.008 0.033c0.013 0.052 0.025 0.105 0.036 0.158l0.014 0.068 0.019 0.1h2.861c0.001 0 0.002 0 0.003 0 0.139 0 0.252-0.112 0.254-0.25v-2.845h-1.086v-1.357h1.086v-1.743c0-0.822-0.505-1.55-1.288-1.856l-2.604-1.015h-9.856v9.067zM28.999 16.19h8.938l-2.508-5.735c-0.284-0.626-0.903-1.053-1.622-1.053-0.004 0-0.008 0-0.012 0h-4.795v6.787zM11.382 30.091c1.581 0 2.867-1.255 2.867-2.797 0-1.542-1.286-2.796-2.867-2.796-0.050 0-0.098 0.001-0.147 0.004-1.318 0.065-2.402 1.002-2.662 2.229-0.026 0.121-0.045 0.265-0.054 0.412l-0 0.008c-0.002 0.038-0.003 0.083-0.003 0.129 0 0.005 0 0.010 0 0.016v-0.001c0 1.543 1.286 2.797 2.866 2.797zM1.391 22.163h1.086v1.357h-1.087v3.023c0 0.040 0.033 0.072 0.074 0.072h5.716l0.020-0.099c0.004-0.023 0.008-0.047 0.013-0.071 0.011-0.052 0.022-0.104 0.036-0.154l0.009-0.036c0.017-0.063 0.035-0.125 0.055-0.188l0.019-0.055 0.044-0.128 0.028-0.070c0.040-0.102 0.066-0.163 0.093-0.223l-0.016 0.039 0.047-0.103c0.011-0.025 0.024-0.050 0.038-0.074l0.051-0.099 0.041-0.072c0.078-0.134 0.146-0.24 0.217-0.344l-0.012 0.019 0.074-0.1 0.041-0.055c0.033-0.043 0.066-0.085 0.103-0.127l0.018-0.022c0.042-0.049 0.084-0.097 0.127-0.143l0.042-0.044 0.093-0.094 0.055-0.052 0.085-0.081 0.061-0.052 0.087-0.073 0.064-0.052c0.038-0.030 0.088-0.069 0.139-0.106l0.015-0.011c0.031-0.022 0.062-0.044 0.094-0.064l0.066-0.045 0.099-0.063 0.066-0.040 0.113-0.063 0.058-0.033c0.053-0.028 0.107-0.054 0.161-0.079 0.004-0.002 0.009-0.006 0.014-0.007 0.058-0.029 0.119-0.055 0.179-0.079l0.184-0.072 0.073-0.025c0.012-0.005 0.050-0.018 0.089-0.030l0.027-0.007c0.097-0.032 0.228-0.067 0.361-0.095l0.029-0.005 0.083-0.019c0.084-0.017 0.194-0.034 0.306-0.047l0.018-0.002 0.079-0.009 0.139-0.011c0.022 0 0.044-0.003 0.067-0.003 0.062-0.004 0.135-0.006 0.209-0.006s0.146 0.002 0.219 0.006l-0.010-0c0.023 0 0.045 0.002 0.068 0.004 0.046 0.002 0.093 0.006 0.138 0.011 0.026 0.001 0.053 0.006 0.079 0.008 0.089 0.010 0.16 0.020 0.23 0.032l-0.023-0.003 0.117 0.020 0.084 0.018c0.133 0.028 0.237 0.054 0.34 0.085l-0.030-0.008 0.079 0.024c0.039 0.011 0.077 0.024 0.115 0.038l0.073 0.025 0.126 0.049 0.058 0.022c0.148 0.062 0.264 0.118 0.377 0.179l-0.023-0.011 0.058 0.032 0.113 0.063 0.066 0.040 0.099 0.063 0.067 0.044 0.093 0.066c0.060 0.042 0.111 0.080 0.159 0.12l-0.005-0.004 0.065 0.052c0.030 0.023 0.058 0.049 0.087 0.073l0.060 0.052 0.141 0.132 0.093 0.095 0.041 0.044c0.082 0.089 0.164 0.184 0.241 0.283l0.007 0.010 0.040 0.053c0.025 0.033 0.051 0.067 0.074 0.102l0.043 0.064c0.049 0.070 0.103 0.156 0.153 0.243l0.010 0.018 0.040 0.072 0.052 0.099 0.036 0.073 0.049 0.105 0.032 0.072c0.017 0.038 0.031 0.075 0.045 0.113l0.026 0.068c0.017 0.043 0.031 0.086 0.045 0.13l0.019 0.053c0.020 0.062 0.038 0.126 0.055 0.188l0.007 0.031c0.014 0.053 0.026 0.107 0.039 0.161l0.012 0.066 0.021 0.103h12.023v-20.171c0-0.375 0.311-0.68 0.695-0.68h10.060c0.017 0 0.070 0 0.103-0.061 0.009-0.015 0.015-0.034 0.015-0.053 0-0.024-0.008-0.046-0.022-0.063l0 0-2.176-3.186c-0.208-0.3-0.551-0.493-0.939-0.493-0.002 0-0.003 0-0.005 0h-18.168c-0 0-0 0-0.001 0-0.104 0-0.199 0.042-0.267 0.109l0-0-1.151 1.122c-0.321 0.313-0.76 0.506-1.244 0.506-0.003 0-0.006 0-0.008-0h-11.98c-0.004-0-0.008-0-0.012-0-0.61 0-1.106 0.49-1.114 1.098v17.418z"></path>
<path fill="#101828" d="M19.422 7.501h4.402c0.888 0 1.612 0.706 1.612 1.574v14.527c0 0.375-0.311 0.679-0.695 0.679h-6.234c-0.002 0-0.005 0-0.008 0-0.377 0-0.682-0.303-0.687-0.678v-14.527c0-0.868 0.722-1.574 1.611-1.574zM19.201 22.922h4.843v-7.981h-4.844v7.981zM19.201 13.583h4.843v-4.51c-0.001-0.12-0.099-0.216-0.218-0.216-0.001 0-0.002 0-0.002 0h-4.403c-0.121 0-0.221 0.097-0.221 0.216v4.508h0.001zM5.345 7.501h8.51c0.984 0 1.784 0.781 1.784 1.74v3.959c0 0.96-0.801 1.74-1.784 1.74h-8.511c-0.983 0-1.783-0.78-1.783-1.74v-3.959c0-0.96 0.8-1.74 1.784-1.74zM4.952 13.201c0 0.21 0.177 0.383 0.393 0.383h8.51c0.001 0 0.003 0 0.004 0 0.213 0 0.385-0.171 0.388-0.383v-3.959c0-0.211-0.177-0.383-0.393-0.383h-8.511c-0.001 0-0.002 0-0.003 0-0.213 0-0.385 0.171-0.388 0.383v3.959z"></path>
</svg>
