<!-- Generated by IcoMoon.io -->
<svg version="1.1" xmlns="http://www.w3.org/2000/svg" width="40" height="32" viewBox="0 0 40 32">
<title>ac</title>
<path fill="#101828" d="M19.38 0c-0.001 0-0.003 0-0.005 0-1.954 0-3.748 0.683-5.157 1.824l0.015-0.012c-1.413 1.143-2.42 2.736-2.805 4.56l-0.009 0.052-0.144 0.72c-0.022 0.086-0.034 0.185-0.034 0.287 0 0.422 0.215 0.793 0.542 1.010l0.004 0.003c0.196 0.132 0.437 0.21 0.697 0.21 0.615 0 1.127-0.44 1.238-1.023l0.001-0.008 0.148-0.714c0.296-1.387 1.078-2.554 2.156-3.341l0.016-0.011c0.923-0.675 2.081-1.080 3.333-1.080 1.642 0 3.122 0.697 4.16 1.81l0.003 0.003c0.936 1.014 1.456 2.334 1.46 3.706-0.003 1.534-0.633 2.919-1.647 3.915l-0.001 0.001c-1.023 1.004-2.425 1.624-3.973 1.624-0.002 0-0.003 0-0.005 0h-18.122c-0.001 0-0.001 0-0.002 0-0.343 0-0.655 0.137-0.882 0.36l0-0c-0.225 0.221-0.365 0.529-0.365 0.87s0.14 0.649 0.365 0.87l0 0c0.227 0.223 0.538 0.361 0.882 0.362h18.126c2.199-0.052 4.176-0.963 5.616-2.41l0-0c1.426-1.433 2.309-3.408 2.312-5.589v-0.001c-0.003-2.181-0.884-4.155-2.308-5.588l0 0c-1.44-1.447-3.416-2.359-5.606-2.412l-0.010-0zM33.75 11.076c-0.002 0-0.004 0-0.007 0-1.719 0-3.277 0.689-4.414 1.805l0.001-0.001c-1.128 1.107-1.827 2.646-1.83 4.35v0c0 0.328 0.132 0.64 0.366 0.872 0.227 0.224 0.54 0.362 0.884 0.362s0.657-0.138 0.884-0.362l-0 0c0.226-0.222 0.366-0.53 0.366-0.871 0-0 0-0.001 0-0.001v0c0-0.73 0.22-1.444 0.632-2.050 0.412-0.608 0.998-1.080 1.682-1.36 0.424-0.177 0.916-0.28 1.433-0.28 1.033 0 1.971 0.412 2.656 1.081l-0.001-0.001c0.678 0.662 1.099 1.585 1.099 2.607 0 0.512-0.106 0.999-0.296 1.441l0.009-0.024c-0.296 0.688-0.77 1.252-1.366 1.647l-0.014 0.009c-0.618 0.406-1.342 0.622-2.084 0.622h-32.5c-0.001 0-0.001 0-0.002 0-0.343 0-0.655 0.137-0.882 0.36l0-0c-0.226 0.222-0.366 0.53-0.366 0.871s0.14 0.649 0.366 0.871l0 0c0.227 0.223 0.538 0.36 0.882 0.36 0.001 0 0.002 0 0.002 0h24.376c0.828 0.002 1.622 0.328 2.206 0.906 0.586 0.58 0.914 1.36 0.912 2.178-0.002 0.816-0.332 1.598-0.92 2.174-0.573 0.555-1.355 0.897-2.218 0.897-0.776 0-1.487-0.277-2.040-0.737l0.005 0.004c-0.554-0.461-0.942-1.105-1.073-1.837l-0.003-0.019-0.014-0.074c-0.047-0.342-0.231-0.634-0.492-0.824l-0.004-0.002c-0.204-0.149-0.461-0.239-0.738-0.239-0.596 0-1.096 0.414-1.226 0.97l-0.002 0.009c-0.016 0.075-0.026 0.161-0.026 0.249 0 0.085 0.009 0.167 0.025 0.247l-0.001-0.008 0.012 0.074c0.222 1.3 0.904 2.48 1.926 3.33 0.982 0.821 2.259 1.32 3.652 1.32 1.552 0 2.959-0.619 3.989-1.623l-0.001 0.001c1.056-1.040 1.652-2.448 1.654-3.92 0-1.14-0.35-2.196-0.948-3.076h3.448c0.003 0 0.007 0 0.011 0 1.717 0 3.274-0.687 4.41-1.801l-0.001 0.001c1.172-1.156 1.83-2.72 1.83-4.354 0-1.632-0.66-3.196-1.83-4.35-1.136-1.115-2.694-1.804-4.413-1.804-0.002 0-0.005 0-0.007 0h0z"></path>
</svg>
