<!-- Generated by IcoMoon.io -->
<svg version="1.1" xmlns="http://www.w3.org/2000/svg" width="32" height="32" viewBox="0 0 32 32">
<title>beds</title>
<path fill="none" stroke-linejoin="round" stroke-linecap="round" stroke-miterlimit="4" stroke-width="2.24" stroke="#101828" d="M3 26v-7c0.006-2.207 1.793-3.994 3.999-4h18.001c2.207 0.006 3.994 1.793 4 3.999v7.001M24 15h-18v-6.501c0.005-1.379 1.122-2.496 2.5-2.499h15c1.379 0.005 2.496 1.122 2.499 2.5v6.5h-2z"></path>
<path fill="none" stroke-linejoin="round" stroke-linecap="round" stroke-miterlimit="4" stroke-width="2.24" stroke="#101828" d="M3 26v-0.501c0.003-0.827 0.673-1.497 1.501-1.499h22.999c0.828 0.002 1.499 0.673 1.501 1.501v0.499M7 15v-1c0.004-1.103 0.897-1.996 2-2h5c1.103 0.004 1.996 0.897 2 2v0M16 14v1M16 14c0.003-1.103 0.897-1.997 2-2h5c1.103 0.004 1.996 0.897 2 2v1"></path>
</svg>
