<?xml version="1.0" encoding="utf-8"?>
<!-- Generated by IcoMoon.io -->
<svg version="1.1" xmlns="http://www.w3.org/2000/svg" xmlns:xlink="http://www.w3.org/1999/xlink" width="752" height="80" viewBox="0 0 752 80">
<svg id="icon-ac" width="40" height="32" viewBox="0 0 40 32" x="0" y="0">
<path fill="#101828" d="M19.38 0c-0.001 0-0.003 0-0.005 0-1.954 0-3.748 0.683-5.157 1.824l0.015-0.012c-1.413 1.143-2.42 2.736-2.805 4.56l-0.009 0.052-0.144 0.72c-0.022 0.086-0.034 0.185-0.034 0.287 0 0.422 0.215 0.793 0.542 1.010l0.004 0.003c0.196 0.132 0.437 0.21 0.697 0.21 0.615 0 1.127-0.44 1.238-1.023l0.001-0.008 0.148-0.714c0.296-1.387 1.078-2.554 2.156-3.341l0.016-0.011c0.923-0.675 2.081-1.080 3.333-1.080 1.642 0 3.122 0.697 4.16 1.81l0.003 0.003c0.936 1.014 1.456 2.334 1.46 3.706-0.003 1.534-0.633 2.919-1.647 3.915l-0.001 0.001c-1.023 1.004-2.425 1.624-3.973 1.624-0.002 0-0.003 0-0.005 0h-18.122c-0.001 0-0.001 0-0.002 0-0.343 0-0.655 0.137-0.882 0.36l0-0c-0.225 0.221-0.365 0.529-0.365 0.87s0.14 0.649 0.365 0.87l0 0c0.227 0.223 0.538 0.361 0.882 0.362h18.126c2.199-0.052 4.176-0.963 5.616-2.41l0-0c1.426-1.433 2.309-3.408 2.312-5.589v-0.001c-0.003-2.181-0.884-4.155-2.308-5.588l0 0c-1.44-1.447-3.416-2.359-5.606-2.412l-0.010-0zM33.75 11.076c-0.002 0-0.004 0-0.007 0-1.719 0-3.277 0.689-4.414 1.805l0.001-0.001c-1.128 1.107-1.827 2.646-1.83 4.35v0c0 0.328 0.132 0.64 0.366 0.872 0.227 0.224 0.54 0.362 0.884 0.362s0.657-0.138 0.884-0.362l-0 0c0.226-0.222 0.366-0.53 0.366-0.871 0-0 0-0.001 0-0.001v0c0-0.73 0.22-1.444 0.632-2.050 0.412-0.608 0.998-1.080 1.682-1.36 0.424-0.177 0.916-0.28 1.433-0.28 1.033 0 1.971 0.412 2.656 1.081l-0.001-0.001c0.678 0.662 1.099 1.585 1.099 2.607 0 0.512-0.106 0.999-0.296 1.441l0.009-0.024c-0.296 0.688-0.77 1.252-1.366 1.647l-0.014 0.009c-0.618 0.406-1.342 0.622-2.084 0.622h-32.5c-0.001 0-0.001 0-0.002 0-0.343 0-0.655 0.137-0.882 0.36l0-0c-0.226 0.222-0.366 0.53-0.366 0.871s0.14 0.649 0.366 0.871l0 0c0.227 0.223 0.538 0.36 0.882 0.36 0.001 0 0.002 0 0.002 0h24.376c0.828 0.002 1.622 0.328 2.206 0.906 0.586 0.58 0.914 1.36 0.912 2.178-0.002 0.816-0.332 1.598-0.92 2.174-0.573 0.555-1.355 0.897-2.218 0.897-0.776 0-1.487-0.277-2.040-0.737l0.005 0.004c-0.554-0.461-0.942-1.105-1.073-1.837l-0.003-0.019-0.014-0.074c-0.047-0.342-0.231-0.634-0.492-0.824l-0.004-0.002c-0.204-0.149-0.461-0.239-0.738-0.239-0.596 0-1.096 0.414-1.226 0.97l-0.002 0.009c-0.016 0.075-0.026 0.161-0.026 0.249 0 0.085 0.009 0.167 0.025 0.247l-0.001-0.008 0.012 0.074c0.222 1.3 0.904 2.48 1.926 3.33 0.982 0.821 2.259 1.32 3.652 1.32 1.552 0 2.959-0.619 3.989-1.623l-0.001 0.001c1.056-1.040 1.652-2.448 1.654-3.92 0-1.14-0.35-2.196-0.948-3.076h3.448c0.003 0 0.007 0 0.011 0 1.717 0 3.274-0.687 4.41-1.801l-0.001 0.001c1.172-1.156 1.83-2.72 1.83-4.354 0-1.632-0.66-3.196-1.83-4.35-1.136-1.115-2.694-1.804-4.413-1.804-0.002 0-0.005 0-0.007 0h0z"></path>
</svg>
<svg id="icon-adults" width="32" height="32" viewBox="0 0 32 32" x="48" y="0">
<path fill="#101828" d="M9.067 24.133h-4.4c-0.267 0-0.4-0.133-0.534-0.266-0.133-0.134-0.266-0.4-0.133-0.667 0.8-2.267 2.8-3.6 5.067-3.6 2.8 0 5.066-2.4 5.066-5.2s-2.266-5.467-5.066-5.467-5.067 2.4-5.067 5.334c0 1.333 0.533 2.666 1.333 3.6-1.733 0.933-3.066 2.4-3.866 4.4-0.081 0.288-0.128 0.62-0.128 0.962 0 0.787 0.247 1.517 0.668 2.116l-0.008-0.012c0.667 0.934 1.6 1.467 2.667 1.467h4.4c0.8 0 1.333-0.533 1.333-1.333s-0.533-1.334-1.333-1.334zM6.667 14.267c0-1.467 1.066-2.534 2.4-2.534 1.333 0 2.4 1.2 2.4 2.534 0 1.466-1.067 2.533-2.4 2.533-1.334 0-2.4-1.2-2.4-2.533z"></path>
<path fill="#101828" d="M30.533 21.467c-0.914-2.407-2.658-4.325-4.875-5.441l-0.057-0.026c1.2-1.067 1.867-2.667 1.867-4.533 0-3.467-2.667-6.267-5.867-6.267s-5.867 2.8-5.867 6.267c0 1.733 0.667 3.333 1.867 4.533-2.274 1.142-4.019 3.060-4.91 5.399l-0.023 0.069c-0.667 1.2-0.4 2.533 0.266 3.6 0.667 1.066 1.867 1.6 3.067 1.6h11.067c1.2 0 2.4-0.667 3.066-1.6 0.8-1.067 0.934-2.4 0.4-3.6zM18.267 11.6c0-2 1.466-3.6 3.2-3.6 1.733 0 3.2 1.6 3.2 3.6s-1.467 3.6-3.2 3.6c-1.734 0-3.2-1.733-3.2-3.6zM27.867 23.6c-0.134 0.133-0.4 0.533-0.8 0.533h-11.067c-0.533 0-0.8-0.4-0.8-0.533-0.153-0.192-0.246-0.438-0.246-0.706 0-0.18 0.042-0.35 0.116-0.501l-0.003 0.007c1.066-2.8 3.733-4.667 6.533-4.667s5.467 1.867 6.533 4.667c0.134 0.533-0.133 1.067-0.266 1.2z"></path>
</svg>
<svg id="icon-petrol" width="32" height="32" viewBox="0 0 32 32" x="96" y="0">
<path fill="#101828" d="M26.36 9.64l0.013-0.013-4.96-4.96-1.413 1.413 2.813 2.813c-1.266 0.488-2.148 1.695-2.148 3.109 0 0.92 0.374 1.753 0.979 2.355l0 0c0.603 0.602 1.436 0.975 2.355 0.975 0.483 0 0.941-0.103 1.356-0.287l-0.021 0.008v9.614c0 0.736-0.597 1.333-1.333 1.333s-1.333-0.597-1.333-1.333v0-6c0-1.473-1.194-2.667-2.667-2.667v0h-1.333v-9.333c0-1.473-1.194-2.667-2.667-2.667v0h-8c-1.473 0-2.667 1.194-2.667 2.667v0 21.333h13.334v-10h2v6.667c0 1.841 1.492 3.333 3.333 3.333s3.333-1.492 3.333-3.333v0-12.667c0-0.92-0.373-1.76-0.973-2.36zM16 18v7.333h-8v-9.333h8v2zM16 13.333h-8v-6.666h8v6.666zM24 13.333c-0.736 0-1.333-0.597-1.333-1.333s0.597-1.333 1.333-1.333v0c0.736 0 1.333 0.597 1.333 1.333s-0.597 1.333-1.333 1.333v0z"></path>
</svg>
<svg id="icon-tv" width="32" height="32" viewBox="0 0 32 32" x="144" y="0">
<path fill="none" stroke-linejoin="round" stroke-linecap="round" stroke-miterlimit="4" stroke-width="1.8" stroke="#101828" d="M24 26h-16c-2.216 0-4-1.784-4-4v-10c0-2.216 1.784-4 4-4h16c2.216 0 4 1.784 4 4v10c0 2.216-1.784 4-4 4zM12 30h8M16 8l6-6M16 8l-6-6"></path>
</svg>
<svg id="icon-microwave" width="32" height="32" viewBox="0 0 32 32" x="192" y="0">
<path fill="none" stroke-linejoin="round" stroke-linecap="round" stroke-miterlimit="4" stroke-width="2.24" stroke="#101828" d="M29.714 5.714h-27.426c-0 0-0.001 0-0.002 0-0.631 0-1.142 0.511-1.142 1.142 0 0.001 0 0.001 0 0.002v-0 18.285c0 0 0 0.001 0 0.002 0 0.631 0.511 1.142 1.142 1.142 0.001 0 0.001 0 0.002 0h27.424c0 0 0.001 0 0.002 0 0.631 0 1.142-0.511 1.142-1.142 0-0.001 0-0.001 0-0.002v0-18.285c0-0.632-0.512-1.144-1.144-1.144v0z"></path>
<path fill="none" stroke-linejoin="round" stroke-linecap="round" stroke-miterlimit="4" stroke-width="2.24" stroke="#101828" d="M25.142 11.429h1.144M25.142 16h1.144M19.429 10.286h-12.571c-0 0-0.001 0-0.002 0-0.631 0-1.142 0.511-1.142 1.142 0 0 0 0 0 0v0 9.142c0.001 0.631 0.513 1.142 1.144 1.142h12.571c0.631 0 1.142-0.511 1.142-1.142v-9.142c0-0.631-0.511-1.142-1.142-1.142v0z"></path>
</svg>
<svg id="icon-conditioner" width="32" height="32" viewBox="0 0 32 32" x="240" y="0">
<path fill="none" stroke-linejoin="round" stroke-linecap="round" stroke-miterlimit="4" stroke-width="2.4" stroke="#101828" d="M28.571 1.142h-25.142c-1.263 0-2.286 1.024-2.286 2.286v0 11.429c0.001 1.262 1.024 2.285 2.286 2.285h25.142c0 0 0.001 0 0.002 0 1.262 0 2.285-1.023 2.285-2.285v0-11.429c0-0 0-0.001 0-0.002 0-1.262-1.023-2.285-2.285-2.285-0.001 0-0.001 0-0.002 0h0z"></path>
<path fill="none" stroke-linejoin="round" stroke-linecap="round" stroke-miterlimit="4" stroke-width="2.4" stroke="#101828" d="M25.142 17.142v-4.571c0-1.262-1.023-2.285-2.285-2.285h-13.715c-1.261 0.001-2.284 1.023-2.285 2.285v4.571M5.714 28.571h0.229c1.767 0 3.2-1.433 3.2-3.2v0-2.514M26.286 28.571h-0.229c-1.767 0-3.2-1.433-3.2-3.2v0-2.514M16 30.858v-8"></path>
</svg>
<svg id="icon-radio" width="32" height="32" viewBox="0 0 32 32" x="288" y="0">
<path fill="none" stroke-linejoin="miter" stroke-linecap="butt" stroke-miterlimit="4" stroke-width="2.0800" stroke="#101828" d="M2.667 18.667c0-5.029 0-7.544 1.562-9.104 1.563-1.563 4.077-1.563 9.104-1.563h5.334c5.027 0 7.542 0 9.104 1.563 1.562 1.56 1.562 4.075 1.562 9.104 0 5.027 0 7.542-1.562 9.104s-4.077 1.562-9.104 1.562h-5.334c-5.027 0-7.542 0-9.104-1.562s-1.562-4.077-1.562-9.104z"></path>
<path fill="none" stroke-linejoin="miter" stroke-linecap="butt" stroke-miterlimit="4" stroke-width="2.0800" stroke="#101828" d="M6.667 14.667c0-1.473 1.193-2.666 2.666-2.667h13.335c1.473 0 2.666 1.194 2.666 2.666s-1.194 2.666-2.666 2.666v0h-13.334c-1.472-0.001-2.665-1.194-2.666-2.665v-0zM12 22.667c0 1.105-0.895 2-2 2s-2-0.895-2-2v0c0-1.105 0.895-2 2-2s2 0.895 2 2v0z"></path>
<path fill="none" stroke-linejoin="miter" stroke-linecap="round" stroke-miterlimit="4" stroke-width="2.0800" stroke="#101828" d="M20 15.333v2M17.333 22.667h6.667M8.667 8l11.333-5.333"></path>
</svg>
<svg id="icon-route" width="32" height="32" viewBox="0 0 32 32" x="336" y="0">
<path fill="#101828" d="M6.667 4c-0.019-0.001-0.042-0.001-0.065-0.001-1.473 0-2.667 1.194-2.667 2.667s1.194 2.667 2.667 2.667c0.023 0 0.046-0 0.069-0.001l-0.003 0c1.445-0.037 2.602-1.216 2.602-2.666s-1.157-2.63-2.598-2.666l-0.003-0zM1.333 6.667c0-2.946 2.388-5.334 5.334-5.334s5.334 2.388 5.334 5.334v0c0 2.946-2.388 5.334-5.334 5.334s-5.334-2.388-5.334-5.334v0zM25.333 22.667c-0.019-0-0.042-0.001-0.065-0.001-1.473 0-2.667 1.194-2.667 2.667s1.194 2.667 2.667 2.667c0.023 0 0.046-0 0.069-0.001l-0.003 0c1.445-0.037 2.602-1.216 2.602-2.666s-1.157-2.63-2.599-2.666l-0.003-0zM20 25.333c0-2.946 2.388-5.334 5.334-5.334s5.334 2.388 5.334 5.334v0c0 2.946-2.388 5.334-5.334 5.334s-5.334-2.388-5.334-5.334v0z"></path>
<path fill="#101828" d="M13.333 6.667c0-0.736 0.597-1.334 1.334-1.334h8.4c4.13 0 5.619 5.405 1.987 7.429l-15.472 8.805c-0.407 0.224-0.678 0.65-0.678 1.139 0 0.716 0.58 1.296 1.296 1.296 0.023 0 0.046-0.001 0.069-0.002l-0.003 0h7.066c0.737 0 1.334 0.597 1.334 1.334s-0.597 1.334-1.334 1.334v0h-7.064c-4.131 0-5.619-5.405-1.987-7.429l15.472-8.805c0.407-0.224 0.678-0.65 0.678-1.139 0-0.716-0.58-1.296-1.296-1.296-0.024 0-0.047 0.001-0.070 0.002l0.003-0h-8.4c-0 0-0.001 0-0.002 0-0.736 0-1.333-0.597-1.333-1.333v0z"></path>
</svg>
<svg id="icon-shower" width="32" height="32" viewBox="0 0 32 32" x="384" y="0">
<path fill="none" stroke-linejoin="round" stroke-linecap="round" stroke-miterlimit="4" stroke-width="2.56" stroke="#101828" d="M5.333 5.333l3.334 3.334M18 8.667c-1.187-1.154-2.809-1.865-4.598-1.865-3.645 0-6.6 2.955-6.6 6.6 0 1.788 0.711 3.411 1.866 4.599l-0.002-0.002M20 6.667l-13.333 13.333M18.667 22.667v0.013M13.333 21.333v0.014M17.333 17.333v0.014M21.333 13.333v0.014M14.667 26.667v0.013M22.667 18.667v0.013M26.667 14.667v0.013"></path>
</svg>
<svg id="icon-toilet" width="32" height="32" viewBox="0 0 32 32" x="432" y="0">
<path fill="#101828" d="M24 4c1.939 0 3.269 1.648 4.040 3.312 0.762 1.654 1.224 3.811 1.286 6.147l0.006 0.541v12.667c0 0.001 0 0.002 0 0.003 0 0.735-0.596 1.331-1.331 1.331-0.019 0-0.038-0-0.057-0.001l0.003 0-0.166-0.019-3.781-0.629-3.781 0.629c-0.066 0.012-0.142 0.018-0.22 0.018-0.093 0-0.184-0.010-0.272-0.028l0.009 0.002-0.157-0.042-3.579-1.192-3.579 1.192c-0.126 0.043-0.27 0.068-0.421 0.068-0.68 0-1.241-0.509-1.323-1.167l-0.001-0.006-0.010-0.16v-3.902c-0.709 0.734-1.595 1.237-2.667 1.237-1.939 0-3.269-1.648-4.040-3.312-0.819-1.781-1.293-4.147-1.293-6.688s0.472-4.907 1.293-6.688c0.736-1.59 1.981-3.163 3.779-3.301l0.261-0.011h16zM24 6.667h-12.291c0.12 0.213 0.23 0.429 0.33 0.646 0.821 1.779 1.296 4.144 1.296 6.686v10.816l2.245-0.747c0.126-0.043 0.27-0.068 0.421-0.068s0.295 0.025 0.43 0.071l-0.009-0.003 3.688 1.229 3.672-0.613c0.066-0.012 0.142-0.018 0.219-0.018s0.153 0.007 0.227 0.019l-0.008-0.001 2.448 0.408v-11.093c0-2.245-0.424-4.213-1.050-5.568-0.677-1.472-1.347-1.765-1.618-1.765zM8 6.667c-0.272 0-0.941 0.293-1.616 1.763-0.629 1.357-1.051 3.325-1.051 5.57s0.422 4.213 1.050 5.568c0.677 1.472 1.347 1.765 1.618 1.765 0.272 0 0.939-0.293 1.616-1.763 0.627-1.357 1.051-3.325 1.051-5.57s-0.424-4.213-1.050-5.568c-0.678-1.472-1.347-1.766-1.618-1.766zM8 11.333c0.736 0 1.333 1.194 1.333 2.667 0 1.472-0.597 2.667-1.333 2.667s-1.333-1.194-1.333-2.667c0-1.472 0.597-2.667 1.333-2.667z"></path>
</svg>
<svg id="icon-gas" width="32" height="32" viewBox="0 0 32 32" x="480" y="0">
<path fill="#101828" d="M25.072 13.992c-0.368-0.454-0.816-0.848-1.232-1.24-1.072-0.906-2.288-1.557-3.312-2.509-2.384-2.206-2.912-5.848-1.392-8.643-1.52 0.347-2.848 1.133-3.982 1.995-4.144 3.142-5.776 8.688-3.824 13.448 0.064 0.152 0.128 0.304 0.128 0.499 0 0.333-0.24 0.635-0.56 0.755-0.368 0.152-0.752 0.061-1.056-0.181-0.090-0.070-0.165-0.155-0.222-0.252l-0.002-0.004c-1.808-2.162-2.096-5.259-0.88-7.738-2.67 2.054-4.126 5.531-3.918 8.81 0.096 0.755 0.192 1.512 0.464 2.267 0.224 0.906 0.656 1.813 1.136 2.614 1.728 2.614 4.72 4.488 7.936 4.864 3.422 0.41 7.085-0.179 9.709-2.416 2.928-2.509 3.952-6.528 2.448-9.974l-0.208-0.392c-0.336-0.696-1.232-1.904-1.232-1.904zM20.016 23.512c-0.448 0.362-1.184 0.755-1.76 0.906-1.792 0.605-3.582-0.24-4.638-1.238 1.904-0.422 3.040-1.752 3.376-3.098 0.272-1.21-0.24-2.206-0.448-3.37-0.192-1.12-0.16-2.070 0.272-3.114 0.304 0.574 0.624 1.149 1.008 1.602 1.232 1.512 3.168 2.176 3.584 4.232 0.064 0.211 0.096 0.422 0.096 0.65 0.048 1.238-0.528 2.598-1.488 3.43z"></path>
</svg>
<svg id="icon-water" width="32" height="32" viewBox="0 0 32 32" x="528" y="0">
<path fill="none" stroke-linejoin="miter" stroke-linecap="butt" stroke-miterlimit="10" stroke-width="2.4" stroke="#101828" d="M25 20c0 5.523-3.477 9-9 9s-9-3.477-9-9c0-5.926 6.451-13.928 8.432-16.243 0.138-0.16 0.342-0.261 0.569-0.261s0.43 0.101 0.568 0.26l0.001 0.001c1.979 2.315 8.43 10.317 8.43 16.243z"></path>
<path fill="none" stroke-linejoin="round" stroke-linecap="round" stroke-miterlimit="4" stroke-width="2.4" stroke="#101828" d="M21.501 20.501c0 2.485-2.014 4.499-4.499 4.499-0.001 0-0.001 0-0.002 0h0"></path>
</svg>
<svg id="icon-hob" width="32" height="32" viewBox="0 0 32 32" x="576" y="0">
<path fill="none" stroke-linejoin="miter" stroke-linecap="butt" stroke-miterlimit="4" stroke-width="2.4" stroke="#101828" d="M12 6.667h16c0.736 0 1.333 0.597 1.333 1.333v0 17.333c0 0 0 0.001 0 0.002 0 0.736-0.597 1.333-1.333 1.333h-16M12 6.667h-8c-0.736 0-1.333 0.597-1.333 1.333v0 17.333c0 0 0 0.001 0 0.002 0 0.736 0.597 1.333 1.333 1.333h8M12 6.667v20"></path>
<path fill="none" stroke-linejoin="round" stroke-linecap="round" stroke-miterlimit="4" stroke-width="2.4" stroke="#101828" d="M7.333 11.333v2.667M24.667 10.667l-8 11.333"></path>
<path fill="#101828" d="M8.667 18c0-0.737-0.597-1.334-1.334-1.334s-1.334 0.597-1.334 1.334v0c0 0.737 0.597 1.334 1.334 1.334s1.334-0.597 1.334-1.334v0zM8.667 22c0-0.737-0.597-1.334-1.334-1.334s-1.334 0.597-1.334 1.334v0c0 0.737 0.597 1.334 1.334 1.334s1.334-0.597 1.334-1.334v0z"></path>
</svg>
<svg id="icon-cd" width="32" height="32" viewBox="0 0 32 32" x="624" y="0">
<path fill="none" stroke-linejoin="miter" stroke-linecap="butt" stroke-miterlimit="4" stroke-width="2.4" stroke="#101828" d="M16 28c6.627 0 12-5.373 12-12s-5.373-12-12-12v0c-6.627 0-12 5.373-12 12s5.373 12 12 12v0z"></path>
<path fill="none" stroke-linejoin="miter" stroke-linecap="round" stroke-miterlimit="4" stroke-width="2.4" stroke="#101828" d="M8.667 16c0-4.050 3.283-7.333 7.333-7.333v0"></path>
<path fill="none" stroke-linejoin="miter" stroke-linecap="butt" stroke-miterlimit="4" stroke-width="2.4" stroke="#101828" d="M16 19.333c1.841 0 3.333-1.492 3.333-3.333s-1.492-3.333-3.333-3.333v0c-1.841 0-3.333 1.492-3.333 3.333s1.492 3.333 3.333 3.333v0z"></path>
</svg>
<svg id="icon-kitchen" width="32" height="32" viewBox="0 0 32 32" x="672" y="0">
<path fill="none" stroke-linejoin="round" stroke-linecap="round" stroke-miterlimit="4" stroke-width="2.4" stroke="#101828" d="M25.333 20v-16c-6.421 6.125-6.696 11.091-6.666 16h6.666zM25.333 20v8h-1.333v-4M10.667 5.333v22.667M6.667 5.333v4c0 2.209 1.791 4 4 4s4-1.791 4-4v0-4"></path>
</svg>
<svg id="icon-beds" width="32" height="32" viewBox="0 0 32 32" x="720" y="0">
<path fill="none" stroke-linejoin="round" stroke-linecap="round" stroke-miterlimit="4" stroke-width="2.24" stroke="#101828" d="M3 26v-7c0.006-2.207 1.793-3.994 3.999-4h18.001c2.207 0.006 3.994 1.793 4 3.999v7.001M24 15h-18v-6.501c0.005-1.379 1.122-2.496 2.5-2.499h15c1.379 0.005 2.496 1.122 2.499 2.5v6.5h-2z"></path>
<path fill="none" stroke-linejoin="round" stroke-linecap="round" stroke-miterlimit="4" stroke-width="2.24" stroke="#101828" d="M3 26v-0.501c0.003-0.827 0.673-1.497 1.501-1.499h22.999c0.828 0.002 1.499 0.673 1.501 1.501v0.499M7 15v-1c0.004-1.103 0.897-1.996 2-2h5c1.103 0.004 1.996 0.897 2 2v0M16 14v1M16 14c0.003-1.103 0.897-1.997 2-2h5c1.103 0.004 1.996 0.897 2 2v1"></path>
</svg>
<svg id="icon-automatic" width="32" height="32" viewBox="0 0 32 32" x="0" y="48">
<path fill="none" stroke-linejoin="round" stroke-linecap="round" stroke-miterlimit="4" stroke-width="2.4" stroke="#101828" d="M22.667 14.667h2c1.105 0 2-0.895 2-2s-0.895-2-2-2v0h-2v6.666M22.667 22.667v5.333h1.333c1.473 0 2.666-1.194 2.666-2.666s-1.194-2.666-2.666-2.666v0h-1.333zM4 6.667c-0.001 0.019-0.001 0.042-0.001 0.065 0 1.473 1.194 2.667 2.667 2.667s2.667-1.194 2.667-2.667c0-0.023-0-0.046-0.001-0.069l0 0.003c-0.037-1.445-1.216-2.602-2.666-2.602s-2.63 1.157-2.666 2.598l-0 0.003z"></path>
<path fill="none" stroke-linejoin="round" stroke-linecap="round" stroke-miterlimit="4" stroke-width="2.4" stroke="#101828" d="M6.667 9.333v4c0 0 0 0.001 0 0.002 0 0.736 0.597 1.333 1.333 1.333h4M12 14.667v9.333c0 0.736 0.597 1.333 1.333 1.333v0h4M12 14.667h5.333"></path>
</svg>
<svg id="icon-freezer" width="32" height="32" viewBox="0 0 32 32" x="48" y="48">
<path fill="none" stroke-linejoin="round" stroke-linecap="round" stroke-miterlimit="4" stroke-width="2.0800" stroke="#101828" d="M23.4 3h-14.794c-1.104 0-2 0.896-2 2v20.387c0 1.104 0.896 2 2 2h14.794c1.104 0 2-0.896 2-2v-20.387c0-1.104-0.896-2-2-2z"></path>
<path fill="none" stroke-linejoin="round" stroke-linecap="round" stroke-miterlimit="4" stroke-width="2.0800" stroke="#101828" d="M6.608 13.126h18.784M10.314 10.566v-4.038M10.314 19.442v-4.042M8.426 27.387v0.699c0 0 0 0.001 0 0.002 0 0.502 0.406 0.909 0.907 0.912h1.648c0.504 0 0.912-0.408 0.912-0.912v0-0.701M20.101 27.387v0.699c0 0 0 0.001 0 0.002 0 0.504 0.408 0.912 0.912 0.912 0 0 0 0 0 0h1.654c0.504 0 0.912-0.408 0.912-0.912v0-0.701"></path>
</svg>
</svg>
