<!-- Generated by IcoMoon.io -->
<svg version="1.1" xmlns="http://www.w3.org/2000/svg" width="32" height="32" viewBox="0 0 32 32">
<title>petrol</title>
<path fill="#101828" d="M26.36 9.64l0.013-0.013-4.96-4.96-1.413 1.413 2.813 2.813c-1.266 0.488-2.148 1.695-2.148 3.109 0 0.92 0.374 1.753 0.979 2.355l0 0c0.603 0.602 1.436 0.975 2.355 0.975 0.483 0 0.941-0.103 1.356-0.287l-0.021 0.008v9.614c0 0.736-0.597 1.333-1.333 1.333s-1.333-0.597-1.333-1.333v0-6c0-1.473-1.194-2.667-2.667-2.667v0h-1.333v-9.333c0-1.473-1.194-2.667-2.667-2.667v0h-8c-1.473 0-2.667 1.194-2.667 2.667v0 21.333h13.334v-10h2v6.667c0 1.841 1.492 3.333 3.333 3.333s3.333-1.492 3.333-3.333v0-12.667c0-0.92-0.373-1.76-0.973-2.36zM16 18v7.333h-8v-9.333h8v2zM16 13.333h-8v-6.666h8v6.666zM24 13.333c-0.736 0-1.333-0.597-1.333-1.333s0.597-1.333 1.333-1.333v0c0.736 0 1.333 0.597 1.333 1.333s-0.597 1.333-1.333 1.333v0z"></path>
</svg>
