<svg width="20" height="16" fill="none" xmlns="http://www.w3.org/2000/svg">
  <mask id="a" fill="#fff">
    <path d="M9.69 0a4.1 4.1 0 0 0-2.573.906A3.987 3.987 0 0 0 5.71 3.212l-.072.36a.606.606 0 0 0 .256.65.63.63 0 0 0 .968-.41l.074-.357a2.763 2.763 0 0 1 1.086-1.676 2.842 2.842 0 0 1 3.748.367c.468.507.728 1.167.73 1.853a2.75 2.75 0 0 1-.824 1.958 2.836 2.836 0 0 1-1.989.812H.626a.63.63 0 0 0-.442.18.61.61 0 0 0 0 .87A.63.63 0 0 0 .625 8h9.063a4.094 4.094 0 0 0 2.808-1.205A3.97 3.97 0 0 0 13.652 4a3.97 3.97 0 0 0-1.154-2.794A4.094 4.094 0 0 0 9.69 0Zm7.185 5.538a3.15 3.15 0 0 0-2.21.902 3.053 3.053 0 0 0-.915 2.175c0 .164.066.32.183.436a.63.63 0 0 0 .884 0A.61.61 0 0 0 15 8.615c0-.365.11-.722.316-1.025.206-.304.499-.54.841-.68a1.902 1.902 0 0 1 2.044.4 1.82 1.82 0 0 1 .406 2.012 1.853 1.853 0 0 1-.69.828c-.309.203-.671.311-1.042.311H.625a.63.63 0 0 0-.442.18.61.61 0 0 0 0 .871.63.63 0 0 0 .442.18h12.188c.414.001.811.164 1.103.453.293.29.457.68.456 1.089-.001.408-.166.799-.46 1.087a1.595 1.595 0 0 1-2.126.082 1.55 1.55 0 0 1-.538-.928l-.007-.037a.609.609 0 0 0-.248-.413.63.63 0 0 0-.983.37.608.608 0 0 0-.001.244l.006.037c.111.65.452 1.24.963 1.665a2.857 2.857 0 0 0 3.82-.151c.528-.52.826-1.224.827-1.96 0-.57-.175-1.098-.474-1.538h1.724a3.15 3.15 0 0 0 2.21-.9c.586-.578.915-1.36.915-2.177 0-.816-.33-1.598-.915-2.175a3.15 3.15 0 0 0-2.21-.902Z"/>
  </mask>
  <path d="M9.69 0a4.1 4.1 0 0 0-2.573.906A3.987 3.987 0 0 0 5.71 3.212l-.072.36a.606.606 0 0 0 .256.65.63.63 0 0 0 .968-.41l.074-.357a2.763 2.763 0 0 1 1.086-1.676 2.842 2.842 0 0 1 3.748.367c.468.507.728 1.167.73 1.853a2.75 2.75 0 0 1-.824 1.958 2.836 2.836 0 0 1-1.989.812H.626a.63.63 0 0 0-.442.18.61.61 0 0 0 0 .87A.63.63 0 0 0 .625 8h9.063a4.094 4.094 0 0 0 2.808-1.205A3.97 3.97 0 0 0 13.652 4a3.97 3.97 0 0 0-1.154-2.794A4.094 4.094 0 0 0 9.69 0Zm7.185 5.538a3.15 3.15 0 0 0-2.21.902 3.053 3.053 0 0 0-.915 2.175c0 .164.066.32.183.436a.63.63 0 0 0 .884 0A.61.61 0 0 0 15 8.615c0-.365.11-.722.316-1.025.206-.304.499-.54.841-.68a1.902 1.902 0 0 1 2.044.4 1.82 1.82 0 0 1 .406 2.012 1.853 1.853 0 0 1-.69.828c-.309.203-.671.311-1.042.311H.625a.63.63 0 0 0-.442.18.61.61 0 0 0 0 .871.63.63 0 0 0 .442.18h12.188c.414.001.811.164 1.103.453.293.29.457.68.456 1.089-.001.408-.166.799-.46 1.087a1.595 1.595 0 0 1-2.126.082 1.55 1.55 0 0 1-.538-.928l-.007-.037a.609.609 0 0 0-.248-.413.63.63 0 0 0-.983.37.608.608 0 0 0-.001.244l.006.037c.111.65.452 1.24.963 1.665a2.857 2.857 0 0 0 3.82-.151c.528-.52.826-1.224.827-1.96 0-.57-.175-1.098-.474-1.538h1.724a3.15 3.15 0 0 0 2.21-.9c.586-.578.915-1.36.915-2.177 0-.816-.33-1.598-.915-2.175a3.15 3.15 0 0 0-2.21-.902Z" fill="#101828"/>
  <path d="m9.69 0 .124-4.998L9.75-5H9.69l.001 5ZM5.71 3.212l-4.9-.997-.001.009 4.901.988Zm-.072.36L10.5 4.737l.02-.088.019-.089-4.901-.988Zm1.224.24L1.965 2.805l-.019.093-.015.092 4.931.824Zm.074-.357L2.04 2.445v.001l4.897 1.009Zm5.564.544h5v-.013L12.5 4Zm-2.813 2.77v5h.003l-.002-5ZM0 7.385h-5 5ZM9.688 8v5h.06l.06-.002L9.688 8ZM15 8.615h5-5ZM0 11.077h-5 5Zm12.813.615.01-5h-.01v5Zm-.007 3.077.01-5h-.013l.003 5Zm-1.558-1.294-4.93.834.001.008.002.009 4.927-.851Zm-.007-.037-4.953.681.01.077.013.076 4.93-.835Zm-1.232.201 4.93-.834-.013-.075-.015-.074-4.902.983Zm.006.037-4.93.835.002.008 4.928-.843ZM12.806 16l.002-5h-.003l.001 5Zm2.819-2.77 5 .01v-.01h-5Zm-.474-1.538v-5H5.705l5.312 7.812 4.134-2.812ZM9.69-5a9.1 9.1 0 0 0-5.712 2.015l6.28 7.782A.901.901 0 0 1 9.691 5L9.69-5ZM3.977-2.985a8.987 8.987 0 0 0-3.167 5.2l9.8 1.994c-.05.245-.182.45-.353.588l-6.28-7.782ZM.809 2.224l-.073.359L10.54 4.56l.072-.359L.81 2.224Zm-.034.182a5.606 5.606 0 0 0-.071 2.267l9.852-1.712c.103.59.083 1.194-.056 1.776L.775 2.406ZM.704 4.673a5.61 5.61 0 0 0 .828 2.104l8.376-5.463a4.39 4.39 0 0 1 .648 1.647L.704 4.673Zm.828 2.104a5.62 5.62 0 0 0 1.574 1.595L8.682.07a4.38 4.38 0 0 1 1.226 1.243L1.532 6.777Zm1.574 1.595a5.63 5.63 0 0 0 2.051.85L7.09-.589a4.37 4.37 0 0 1 1.593.66l-5.576 8.3Zm2.051.85c.73.144 1.483.142 2.213-.007L5.375-.584a4.365 4.365 0 0 1 1.714-.005L5.157 9.222Zm2.213-.007a5.63 5.63 0 0 0 2.046-.863L3.786.087a4.37 4.37 0 0 1 1.589-.67L7.37 9.214Zm2.046-.863a5.62 5.62 0 0 0 1.564-1.606L2.568 1.338A4.38 4.38 0 0 1 3.787.087l5.63 8.265Zm1.564-1.606a5.61 5.61 0 0 0 .814-2.11L1.931 2.99a4.39 4.39 0 0 1 .637-1.65l8.412 5.407Zm.78-1.925.074-.358-9.795-2.017-.074.358 9.795 2.017Zm.073-.356a2.237 2.237 0 0 1-.873 1.36l-5.877-8.09a7.763 7.763 0 0 0-3.044 4.71l9.794 2.02Zm-.873 1.36a2.158 2.158 0 0 1-1.479.404l.973-9.953a7.842 7.842 0 0 0-5.371 1.458l5.877 8.09Zm-1.479.404a2.174 2.174 0 0 1-1.386-.694l7.351-6.779a7.826 7.826 0 0 0-4.992-2.48l-.973 9.953Zm-1.386-.694A2.257 2.257 0 0 1 7.5 4.011l10-.025a7.743 7.743 0 0 0-2.053-5.23l-7.352 6.78ZM7.5 4c0-.617.25-1.192.668-1.604l7.017 7.124A7.749 7.749 0 0 0 17.5 4h-10Zm.668-1.604c.415-.409.962-.626 1.517-.626l.005 10a7.836 7.836 0 0 0 5.495-2.25L8.167 2.395Zm1.52-.626H.624v10h9.063v-10Zm-9.063 0a5.63 5.63 0 0 0-3.95 1.618l7.016 7.125A4.37 4.37 0 0 1 .625 11.77v-10Zm-3.95 1.618A5.61 5.61 0 0 0-5 7.385H5a4.39 4.39 0 0 1-1.309 3.127l-7.016-7.125ZM-5 7.385a5.61 5.61 0 0 0 1.675 3.998l7.016-7.126A4.39 4.39 0 0 1 5 7.385H-5Zm1.675 3.998A5.63 5.63 0 0 0 .625 13V3a4.37 4.37 0 0 1 3.066 1.257l-7.016 7.126ZM.625 13h9.063V3H.624v10Zm9.183-.002a9.094 9.094 0 0 0 6.239-2.683l-7.102-7.04A.906.906 0 0 1 9.567 3L9.808 13Zm6.239-2.683a8.97 8.97 0 0 0 2.605-6.312L8.652 4c0-.286.114-.544.293-.725l7.102 7.04Zm2.605-6.312a8.969 8.969 0 0 0-2.601-6.314L8.945 4.725A1.03 1.03 0 0 1 8.652 4l10 .003ZM16.05-2.311a9.094 9.094 0 0 0-6.237-2.687l-.248 9.996a.907.907 0 0 1-.621-.273l7.106-7.036Zm.824 2.85a8.15 8.15 0 0 0-5.718 2.338l7.016 7.126a1.85 1.85 0 0 1-1.298.536v-10Zm-5.718 2.338A8.053 8.053 0 0 0 8.75 8.615h10c0 .536-.217 1.033-.577 1.387l-7.016-7.125ZM8.75 8.615c0 1.515.612 2.951 1.675 3.998l7.016-7.125a4.39 4.39 0 0 1 1.309 3.127h-10Zm1.675 3.998a5.63 5.63 0 0 0 3.95 1.618v-10a4.37 4.37 0 0 1 3.066 1.257l-7.016 7.125Zm3.95 1.618a5.63 5.63 0 0 0 3.95-1.618l-7.016-7.125a4.37 4.37 0 0 1 3.066-1.257v10Zm3.95-1.618A5.611 5.611 0 0 0 20 8.615H10a4.39 4.39 0 0 1 1.309-3.127l7.016 7.125ZM20 8.615c0 .642-.194 1.262-.547 1.782L11.18 4.782A6.826 6.826 0 0 0 10 8.615h10Zm-.547 1.782c-.352.52-.845.913-1.407 1.143l-3.777-9.26a6.868 6.868 0 0 0-3.09 2.502l8.274 5.615Zm-1.407 1.143a3.098 3.098 0 0 1-1.766.171l1.922-9.813a6.902 6.902 0 0 0-3.933.382l3.777 9.26Zm-1.766.171a3.116 3.116 0 0 1-1.587-.838l7.016-7.126a6.884 6.884 0 0 0-3.507-1.85l-1.922 9.814Zm-1.587-.838c-.443-.436-.753-1.001-.88-1.628l9.802-1.98a6.837 6.837 0 0 0-1.906-3.518l-7.016 7.126Zm-.88-1.628a3.18 3.18 0 0 1 .185-1.862l9.218 3.878a6.82 6.82 0 0 0 .399-3.996l-9.802 1.98Zm.185-1.862a3.147 3.147 0 0 1 1.17-1.41l5.497 8.354a6.853 6.853 0 0 0 2.551-3.066l-9.218-3.878Zm1.17-1.41a3.104 3.104 0 0 1 1.707-.511v10a6.896 6.896 0 0 0 3.79-1.134l-5.496-8.355Zm1.707-.511H.625v10h16.25v-10Zm-16.25 0a5.63 5.63 0 0 0-3.95 1.617l7.016 7.126A4.37 4.37 0 0 1 .625 15.46v-10Zm-3.95 1.617A5.61 5.61 0 0 0-5 11.077H5a4.39 4.39 0 0 1-1.309 3.128l-7.016-7.126ZM-5 11.077a5.61 5.61 0 0 0 1.675 3.998l7.016-7.126A4.39 4.39 0 0 1 5 11.077H-5Zm1.675 3.998a5.63 5.63 0 0 0 3.95 1.617v-10A4.37 4.37 0 0 1 3.691 7.95l-7.016 7.126Zm3.95 1.617h12.188v-10H.624v10Zm12.178 0a3.425 3.425 0 0 1-2.402-.991l7.03-7.112a6.575 6.575 0 0 0-4.609-1.897l-.02 10Zm-2.402-.991a3.474 3.474 0 0 1-1.03-2.477l10 .02a6.527 6.527 0 0 0-1.94-4.655l-7.03 7.112Zm-1.03-2.477a3.473 3.473 0 0 1 1.04-2.473l7.002 7.14a6.526 6.526 0 0 0 1.959-4.647l-10-.02Zm1.04-2.473a3.425 3.425 0 0 1 2.405-.982l-.02 10a6.575 6.575 0 0 0 4.617-1.878l-7.002-7.14Zm2.392-.982c.786 0 1.559.273 2.178.787l-6.39 7.693a6.595 6.595 0 0 0 4.219 1.52l-.007-10Zm2.178.787a3.45 3.45 0 0 1 1.193 2.067l-9.853 1.703a6.55 6.55 0 0 0 2.27 3.923l6.39-7.693Zm1.196 2.084-.006-.037-9.86 1.669.007.037 9.86-1.669Zm.018.116a5.61 5.61 0 0 0-.751-2.128l-8.568 5.157a4.39 4.39 0 0 1-.588-1.666l9.907-1.363Zm-.751-2.128a5.62 5.62 0 0 0-1.512-1.648l-5.878 8.09a4.38 4.38 0 0 1-1.178-1.285l8.568-5.157ZM13.932 8.98a5.63 5.63 0 0 0-2.015-.924l-2.299 9.732a4.37 4.37 0 0 1-1.564-.718l5.878-8.09Zm-2.015-.924a5.634 5.634 0 0 0-2.206-.077l1.616 9.868a4.364 4.364 0 0 1-1.709-.06l2.299-9.731ZM9.71 7.979a5.631 5.631 0 0 0-2.071.78l5.295 8.483a4.369 4.369 0 0 1-1.608.605L9.711 7.98Zm-2.071.78a5.62 5.62 0 0 0-1.622 1.535l8.18 5.752c-.34.482-.77.888-1.263 1.196L7.64 8.759Zm-1.622 1.535a5.61 5.61 0 0 0-.9 2.066l9.784 2.07a4.392 4.392 0 0 1-.704 1.616l-8.18-5.752Zm-.9 2.066a5.606 5.606 0 0 0-.012 2.263l9.805-1.967a4.393 4.393 0 0 1-.01 1.773L5.119 12.36Zm-.04 2.114.007.037 9.86-1.67-.006-.036-9.86 1.669Zm.009.045a7.777 7.777 0 0 0 2.692 4.665l6.399-7.685c.395.329.674.799.765 1.334L5.087 14.52Zm2.692 4.665A7.856 7.856 0 0 0 12.807 21l-.002-10c.492 0 .979.17 1.373.499l-6.399 7.685ZM12.804 21a7.84 7.84 0 0 0 5.498-2.244l-7.008-7.133A2.16 2.16 0 0 1 12.807 11l-.004 10Zm5.498-2.244a7.753 7.753 0 0 0 2.323-5.516l-10-.018c.001-.615.25-1.189.668-1.6l7.009 7.134Zm2.323-5.525c0-1.61-.498-3.113-1.339-4.35l-8.27 5.623a2.274 2.274 0 0 1-.391-1.273h10Zm-5.474 3.461h1.724v-10h-1.724v10Zm1.724 0a8.15 8.15 0 0 0 5.718-2.338l-7.016-7.126a1.85 1.85 0 0 1 1.298-.536v10Zm5.718-2.338A8.053 8.053 0 0 0 25 8.615H15c0-.535.217-1.032.577-1.387l7.016 7.126ZM25 8.615c0-2.167-.875-4.23-2.407-5.738l-7.016 7.125A1.947 1.947 0 0 1 15 8.615h10Zm-2.407-5.738A8.15 8.15 0 0 0 16.875.538v10a1.85 1.85 0 0 1-1.298-.536l7.016-7.125Z" fill="#101828" mask="url(#a)"/>
</svg>
